PathFileType	4	(X/Y/Z)	C:\Users\86182\Documents\cortex\Trimmed_M3_L13.trc
DataRate	CameraRate	NumFrames	NumMarkers	Units	OrigDataRate	OrigDataStartFrame	OrigNumFrames
100.00	100.00	       98	2	mm	100.00	181	       901
Frame#	Time	gripper			box			
		X1	Y1	Z1	X2	Y2	Z2	

181	1.800	274.23505	149.13031	229.63048	276.79486	147.03102	93.63541	
182	1.810	274.13617	149.05379	230.05095	276.86411	147.10576	94.16440	
183	1.820	274.15509	149.16214	230.59177	276.89105	147.30675	94.76723	
184	1.830	273.90833	149.13446	230.97668	276.81320	147.25623	95.05109	
185	1.840	274.21225	149.15916	231.28531	276.66003	147.20787	95.47585	
186	1.850	274.10132	149.18105	231.88492	276.64435	147.30515	96.00513	
187	1.860	274.01614	149.13547	232.26534	276.45724	147.32625	96.45972	
188	1.870	273.91718	149.19608	232.72296	276.76642	147.20354	96.67576	
189	1.880	274.06714	149.17775	233.07498	276.78763	147.33279	97.17398	
190	1.890	274.05222	149.20924	233.47585	276.45474	147.45926	97.73821	
191	1.900	273.93872	149.17876	233.87849	276.59525	147.32947	98.05280	
192	1.910	273.89648	149.20636	234.21022	276.39932	147.26122	98.47719	
193	1.920	273.91263	149.33305	234.66432	276.41660	147.40353	98.76326	
194	1.930	273.95383	149.33980	235.16086	276.52057	147.36862	99.03732	
195	1.940	273.82224	149.32330	235.60887	276.47476	147.54486	99.94830	
196	1.950	273.98792	149.30070	235.88330	276.32135	147.45296	100.20671	
197	1.960	274.04138	149.22194	236.48250	276.48312	147.31627	100.52575	
198	1.970	273.94473	149.38275	236.91960	276.69614	147.30844	100.87162	
199	1.980	274.07294	149.33249	237.22224	276.69534	147.36606	101.26865	
200	1.990	274.04181	149.34167	237.72736	276.50977	147.56064	101.96524	
201	2.000	274.14203	149.29799	238.23796	276.44711	147.56544	102.41350	
202	2.010	273.93173	149.44080	238.72719	276.54352	147.58174	102.84512	
203	2.020	274.20920	149.43512	239.16306	276.75858	147.44960	103.23182	
204	2.030	274.06952	149.35335	239.66226	276.72794	147.56226	103.56968	
205	2.040	274.16254	149.37952	240.02531	276.71536	147.69882	104.15968	
206	2.050	274.16382	149.44521	240.42445	276.66724	147.63133	104.85777	
207	2.060	274.12982	149.42918	240.89986	276.60516	147.57913	105.01690	
208	2.070	273.94479	149.56075	241.46043	276.40375	147.78265	105.42451	
209	2.080	273.96588	149.53883	241.64966	276.36890	147.82068	105.78528	
210	2.090	274.05313	149.49606	242.07362	276.87280	147.61459	105.90575	
211	2.100	273.99686	149.41672	242.55168	276.29196	147.74615	106.89361	
212	2.110	273.98779	149.49037	243.03078	276.34390	147.80125	107.22694	
213	2.120	273.92413	149.53456	243.37573	276.27982	147.79547	107.46217	
214	2.130	273.99210	149.60374	243.81540	276.52301	147.77055	107.87125	
215	2.140	273.91467	149.58699	244.14589	276.02771	147.86603	108.45327	
216	2.150	274.01117	149.40750	244.56615	276.11218	147.83702	108.71339	
217	2.160	274.03363	149.50864	244.97502	276.15735	147.87564	109.25916	
218	2.170	274.20697	149.53856	245.61839	276.36041	147.73862	109.76556	
219	2.180	274.03146	149.53494	246.02235	276.42255	147.74988	110.07787	
220	2.190	273.87619	149.54283	246.24577	276.36786	147.79616	110.59003	
221	2.200	274.10153	149.44090	246.76477	276.38239	147.78082	110.84634	
222	2.210	274.21320	149.36435	247.31491	276.50821	147.76718	111.51353	
223	2.220	274.13864	149.44905	247.78233	276.71896	147.81818	111.83723	
224	2.230	273.95142	149.53310	248.13777	276.48172	147.85005	112.28961	
225	2.240	274.12982	149.49789	248.52544	276.13187	147.90114	112.86362	
226	2.250	273.79947	149.41821	248.94656	276.33707	147.79182	113.13693	
227	2.260	274.01889	149.33371	249.24683	276.44406	147.83856	113.40268	
228	2.270	273.84738	149.27328	249.84784	276.52274	147.79590	113.88247	
229	2.280	273.88110	149.40584	250.41435	276.37387	147.73575	114.28973	
230	2.290	273.68762	149.41194	250.65552	276.30359	147.79036	114.95100	
231	2.300	273.65903	149.34885	250.85112	276.06378	147.90094	115.29481	
232	2.310	273.53696	149.32887	251.39296	276.24545	147.94351	115.48913	
233	2.320	273.82190	149.26477	251.91812	276.20740	147.77219	115.79292	
234	2.330	273.77997	149.34184	252.30309	276.06540	147.69836	116.48142	
235	2.340	273.46255	149.24167	252.77609	276.13028	147.70883	116.97451	
236	2.350	273.57727	149.20924	253.07681	276.19952	147.78491	117.30036	
237	2.360	273.72208	149.34369	253.50671	275.98013	147.79721	117.69203	
238	2.370	273.57617	149.36906	253.92226	275.96362	147.67018	118.16132	
239	2.380	273.53052	149.27809	254.56226	276.14725	147.70296	118.38741	
240	2.390	273.80353	149.34856	254.95128	276.12659	147.72026	119.08763	
241	2.400	273.78156	149.29604	255.28897	276.03406	147.77336	119.66045	
242	2.410	273.61215	149.32967	255.71109	276.15240	147.79965	119.91218	
243	2.420	273.53174	149.43443	256.30533	275.97064	147.72987	120.24916	
244	2.430	273.72610	149.28688	256.76608	276.09869	147.73743	120.63721	
245	2.440	273.81311	149.26636	257.11624	275.97452	147.76772	121.21503	
246	2.450	273.70386	149.26422	257.44040	276.02319	147.85153	121.63463	
247	2.460	273.64069	149.46083	257.83969	276.18317	147.88120	122.03338	
248	2.470	273.48416	149.42116	258.25266	276.38165	147.74359	122.28521	
249	2.480	273.71161	149.45836	258.76538	275.80002	147.88373	122.85213	
250	2.490	273.78864	149.40276	259.13321	275.85999	147.81154	123.19178	
251	2.500	273.67706	149.30476	259.61719	275.78821	147.76764	123.76402	
252	2.510	273.48517	149.38277	259.98932	275.76352	147.82585	124.09611	
253	2.520	273.70502	149.42891	260.33386	275.87695	147.85167	124.62697	
254	2.530	273.64090	149.47719	260.91388	275.66116	147.85168	125.12431	
255	2.540	273.66730	149.48666	261.33923	275.55582	147.78522	125.44514	
256	2.550	273.57190	149.44397	261.60992	275.73624	147.65103	125.72729	
257	2.560	273.86371	149.45045	262.14075	275.68692	147.78094	126.32072	
258	2.570	273.68964	149.44710	262.56100	275.84711	147.91194	126.84428	
259	2.580	273.69781	149.47430	262.99258	275.67035	147.79100	127.36327	
260	2.590	273.79510	149.54787	263.47791	275.76077	147.76291	127.55693	
261	2.600	273.75720	149.43416	263.97672	275.82098	147.74510	127.89046	
262	2.610	273.88571	149.47858	264.37738	275.90930	147.83646	128.53937	
263	2.620	273.73669	149.50757	264.63556	275.68961	147.86809	129.14177	
264	2.630	273.72867	149.56279	265.25314	275.68555	147.83575	129.48241	
265	2.640	273.71320	149.52573	265.78134	275.82248	147.78253	129.79837	
266	2.650	273.83621	149.52184	265.92657	275.91028	147.75165	129.97617	
267	2.660	273.81247	149.52269	266.51846	275.62805	147.85495	130.53836	
268	2.670	273.75864	149.48399	266.90500	275.49051	147.81448	131.08612	
269	2.680	273.67953	149.59764	267.26569	275.68640	147.94463	131.66597	
270	2.690	273.71423	149.58929	267.65686	275.76376	147.86900	131.94189	
271	2.700	273.76157	149.53387	268.09302	275.79813	147.67287	132.18819	
272	2.710	273.58875	149.54016	268.58447	275.62936	147.72659	132.44566	
273	2.720	273.74548	149.61159	268.88321	275.37558	147.98441	133.19476	
274	2.730	273.67197	149.67883	269.19540	275.53604	147.81044	133.67810	
275	2.740	273.89026	149.57040	269.78955	275.66776	147.84384	134.04013	
276	2.750	273.74557	149.49583	270.18417	275.61621	147.81526	134.24899	
277	2.760	273.61838	149.61879	270.51346	275.84979	147.75888	134.60222	
278	2.770	273.81537	149.66966	271.09094	275.46597	147.84340	135.35803	
